<svg width="1109" height="336" viewBox="0 0 1109 336" fill="none" xmlns="http://www.w3.org/2000/svg">
<rect y="142" width="1109" height="194" fill="#FFE7BC"/>
<path d="M804.686 78.2883H775.148H760.373V48.7281V0H804.686V78.2883Z" fill="#D0BFAE"/>
<path d="M673.013 143.949H650.223H638.828V89.5896V0H673.013V143.949Z" fill="#F9C66B"/>
<path d="M717.326 143.949H687.788H673.012V89.5896V0H717.326V143.949Z" fill="#D0BFAE"/>
<path d="M733.785 143.949H695.802H676.811V118.203V75.7627H733.785V143.949Z" fill="#F9C66B"/>
<path d="M848.999 143.949H772.185H733.785V118.203V75.7627H848.999V143.949Z" fill="#D0BFAE"/>
<path d="M760.373 75.7628H737.583H726.188V47.1497V0H760.373V75.7628Z" fill="#F9C66B"/>
<path d="M669.214 63.1357H662.884V69.4493H669.214V63.1357Z" fill="#2A2859"/>
<path d="M659.086 63.1357H652.755V69.4493H659.086V63.1357Z" fill="#2A2859"/>
<path d="M648.956 63.1357H642.626V69.4493H648.956V63.1357Z" fill="#2A2859"/>
<path d="M669.214 77.0254H662.884V83.339H669.214V77.0254Z" fill="#2A2859"/>
<path d="M659.086 77.0254H652.755V83.339H659.086V77.0254Z" fill="#2A2859"/>
<path d="M648.956 77.0254H642.626V83.339H648.956V77.0254Z" fill="#2A2859"/>
<path d="M669.214 90.9155H662.884V97.2291H669.214V90.9155Z" fill="#2A2859"/>
<path d="M659.086 90.9155H652.755V97.2291H659.086V90.9155Z" fill="#2A2859"/>
<path d="M648.956 90.9155H642.626V97.2291H648.956V90.9155Z" fill="#2A2859"/>
<path d="M669.214 104.805H662.884V111.119H669.214V104.805Z" fill="#2A2859"/>
<path d="M659.086 104.805H652.755V111.119H659.086V104.805Z" fill="#2A2859"/>
<path d="M648.956 104.805H642.626V111.119H648.956V104.805Z" fill="#2A2859"/>
<path d="M669.214 118.695H662.884V125.009H669.214V118.695Z" fill="#2A2859"/>
<path d="M659.086 118.695H652.755V125.009H659.086V118.695Z" fill="#2A2859"/>
<path d="M648.956 118.695H642.626V125.009H648.956V118.695Z" fill="#2A2859"/>
<path d="M648.956 40.4067H642.626V50.5084H648.956V40.4067Z" fill="#2A2859"/>
<path d="M659.086 40.4067H652.755V50.5084H659.086V40.4067Z" fill="#2A2859"/>
<path d="M669.214 40.4067H662.884V50.5084H669.214V40.4067Z" fill="#2A2859"/>
<path d="M713.528 63.1357H707.198V69.4493H713.528V63.1357Z" fill="#2A2859"/>
<path d="M703.399 63.1357H697.068V69.4493H703.399V63.1357Z" fill="#2A2859"/>
<path d="M693.27 63.1357H686.94V69.4493H693.27V63.1357Z" fill="#2A2859"/>
<path d="M683.142 63.1357H676.811V69.4493H683.142V63.1357Z" fill="#2A2859"/>
<path d="M683.142 40.4067H676.811V50.5084H683.142V40.4067Z" fill="#2A2859"/>
<path d="M693.27 40.4067H686.94V50.5084H693.27V40.4067Z" fill="#2A2859"/>
<path d="M703.399 40.4067H697.068V50.5084H703.399V40.4067Z" fill="#2A2859"/>
<path d="M713.528 40.4067H707.198V50.5084H713.528V40.4067Z" fill="#2A2859"/>
<path d="M718.592 127.534H712.262V136.373H718.592V127.534Z" fill="#2A2859"/>
<path d="M728.721 117.432V108.593H722.39V117.432H718.592V108.593H712.262V117.432H708.463V108.593H702.133V117.432H698.335V108.593H692.004V117.432H688.206V108.593H681.875V117.432H676.811V121.22H733.785V117.432H728.721Z" fill="#2A2859"/>
<path d="M728.721 127.534H722.39V136.373H728.721V127.534Z" fill="#2A2859"/>
<path d="M708.463 127.534H702.133V136.373H708.463V127.534Z" fill="#2A2859"/>
<path d="M698.334 127.534H692.004V136.373H698.334V127.534Z" fill="#2A2859"/>
<path d="M688.206 127.534H681.876V136.373H688.206V127.534Z" fill="#2A2859"/>
<path d="M848.999 75.7627H733.785V79.5509H848.999V75.7627Z" fill="#2A2859"/>
<path d="M845.201 117.432V108.593H838.871V117.432H835.072V108.593H828.742V117.432H824.943V108.593H818.613V117.432H814.815V108.593H808.484V117.432H804.686V108.593H798.355V117.432H794.557V108.593H788.227V117.432H784.428V108.593H778.098V117.432H774.3V108.593H767.969V117.432H764.171V108.593H757.84V117.432H754.042V108.593H747.712V117.432H743.913V108.593H737.583V117.432H733.785V121.22H848.999V117.432H845.201Z" fill="#2A2859"/>
<path d="M774.3 127.534H767.969V136.373H774.3V127.534Z" fill="#2A2859"/>
<path d="M764.171 127.534H757.841V136.373H764.171V127.534Z" fill="#2A2859"/>
<path d="M754.043 127.534H747.712V136.373H754.043V127.534Z" fill="#2A2859"/>
<path d="M743.913 127.534H737.583V136.373H743.913V127.534Z" fill="#2A2859"/>
<path d="M814.815 127.534H808.484V136.373H814.815V127.534Z" fill="#2A2859"/>
<path d="M804.686 127.534H798.355V136.373H804.686V127.534Z" fill="#2A2859"/>
<path d="M794.558 127.534H788.228V136.373H794.558V127.534Z" fill="#2A2859"/>
<path d="M784.429 127.534H778.099V136.373H784.429V127.534Z" fill="#2A2859"/>
<path d="M845.201 127.534H838.871V136.373H845.201V127.534Z" fill="#2A2859"/>
<path d="M835.072 127.534H828.742V136.373H835.072V127.534Z" fill="#2A2859"/>
<path d="M824.944 127.534H818.614V136.373H824.944V127.534Z" fill="#2A2859"/>
<path d="M756.574 63.1357H750.244V69.4493H756.574V63.1357Z" fill="#2A2859"/>
<path d="M746.446 63.1357H740.115V69.4493H746.446V63.1357Z" fill="#2A2859"/>
<path d="M736.318 63.1357H729.987V69.4493H736.318V63.1357Z" fill="#2A2859"/>
<path d="M736.318 40.4067H729.987V50.5084H736.318V40.4067Z" fill="#2A2859"/>
<path d="M746.446 40.4067H740.115V50.5084H746.446V40.4067Z" fill="#2A2859"/>
<path d="M756.574 40.4067H750.244V50.5084H756.574V40.4067Z" fill="#2A2859"/>
<path d="M800.888 63.1357H794.558V69.4493H800.888V63.1357Z" fill="#2A2859"/>
<path d="M790.759 63.1357H784.429V69.4493H790.759V63.1357Z" fill="#2A2859"/>
<path d="M780.63 63.1357H774.3V69.4493H780.63V63.1357Z" fill="#2A2859"/>
<path d="M770.503 63.1357H764.172V69.4493H770.503V63.1357Z" fill="#2A2859"/>
<path d="M770.503 40.4067H764.172V50.5084H770.503V40.4067Z" fill="#2A2859"/>
<path d="M780.63 40.4067H774.3V50.5084H780.63V40.4067Z" fill="#2A2859"/>
<path d="M790.759 40.4067H784.429V50.5084H790.759V40.4067Z" fill="#2A2859"/>
<path d="M800.888 40.4067H794.558V50.5084H800.888V40.4067Z" fill="#2A2859"/>
<path d="M781.264 30.3051C787.207 30.3051 792.026 25.4997 792.026 19.572C792.026 13.6442 787.207 8.83887 781.264 8.83887C775.32 8.83887 770.502 13.6442 770.502 19.572C770.502 25.4997 775.32 30.3051 781.264 30.3051Z" fill="#2A2859"/>
<path d="M781.896 13.8896H779.364V16.4151H781.896V13.8896Z" fill="#F8F0DD"/>
<path d="M781.896 16.415H779.364V18.9404H781.896V16.415Z" fill="#F8F0DD"/>
<path d="M781.896 18.9404H779.364V21.4659H781.896V18.9404Z" fill="#F8F0DD"/>
<path d="M784.429 18.9404H781.897V21.4659H784.429V18.9404Z" fill="#F8F0DD"/>
<path d="M294.996 106.119L282.335 118.746V144H307.657V118.746L294.996 106.119Z" fill="#FF8274"/>
<path d="M269.674 118.746V131.373H257.013V144H269.674H274.358H282.335V136.196V131.373V118.746H269.674Z" fill="#F8F0DD"/>
<path d="M320.317 131.373H307.656V144H320.317V131.373Z" fill="#F8F0DD"/>
<path d="M332.978 118.746L320.317 131.373V144H332.978H345.639V131.373L332.978 118.746Z" fill="#F9C66B"/>
<path d="M358.301 123.797H345.64V144H358.301V123.797Z" fill="#F8F0DD"/>
<path d="M370.961 111.169L358.3 123.797V144H370.961H383.622V123.797L370.961 111.169Z" fill="#D0BFAE"/>
<path d="M282.335 118.746H269.674L282.335 106.119H294.996L282.335 118.746Z" fill="#2A2859"/>
<path d="M257.013 131.373H269.674V118.746L257.013 131.373Z" fill="#2A2859"/>
<path d="M298.794 138.949H293.729V144H298.794V138.949Z" fill="#2A2859"/>
<path d="M320.317 131.373H307.656L320.317 118.746H332.978L320.317 131.373Z" fill="#2A2859"/>
<path d="M335.511 138.949H330.446V144H335.511V138.949Z" fill="#2A2859"/>
<path d="M358.301 123.797H345.64L358.301 111.169H370.962L358.301 123.797Z" fill="#2A2859"/>
<path d="M373.493 138.949H368.428V144H373.493V138.949Z" fill="#2A2859"/>
<path d="M216.498 101.068H193.709L206.37 88.4409H229.159L216.498 101.068Z" fill="#2A2859"/>
<path d="M216.498 101.068H193.709V144H216.498V101.068Z" fill="#F8F0DD"/>
<path d="M229.158 88.4409L216.497 101.068V144H229.158H241.819V101.068L229.158 88.4409Z" fill="#FF8274"/>
<path d="M231.691 138.949H226.627V144H231.691V138.949Z" fill="#2A2859"/>
<path d="M226.627 130.11H221.562V135.161H226.627V130.11Z" fill="#2A2859"/>
<path d="M236.755 130.11H231.691V135.161H236.755V130.11Z" fill="#2A2859"/>
<path d="M226.627 120.009H221.562V125.06H226.627V120.009Z" fill="#2A2859"/>
<path d="M236.755 120.009H231.691V125.06H236.755V120.009Z" fill="#2A2859"/>
<path d="M226.627 109.907H221.562V114.958H226.627V109.907Z" fill="#2A2859"/>
<path d="M236.755 109.907H231.691V114.958H236.755V109.907Z" fill="#2A2859"/>
<path d="M207.635 125.06H202.57V135.161H207.635V125.06Z" fill="#2A2859"/>
<path d="M207.635 109.907H202.57V120.008H207.635V109.907Z" fill="#2A2859"/>
<path d="M163.322 70.7627H138V144H163.322V70.7627Z" fill="#F8F0DD"/>
<path d="M193.708 70.7627H163.322V144H193.708V70.7627Z" fill="#F9C66B"/>
<path d="M181.047 138.949H175.983V144H181.047V138.949Z" fill="#2A2859"/>
<path d="M175.982 120.009H170.918V125.06H175.982V120.009Z" fill="#2A2859"/>
<path d="M186.112 120.009H181.047V125.06H186.112V120.009Z" fill="#2A2859"/>
<path d="M175.982 109.907H170.918V114.958H175.982V109.907Z" fill="#2A2859"/>
<path d="M186.112 109.907H181.047V114.958H186.112V109.907Z" fill="#2A2859"/>
<path d="M175.982 99.8052H170.918V104.856H175.982V99.8052Z" fill="#2A2859"/>
<path d="M186.112 99.8052H181.047V104.856H186.112V99.8052Z" fill="#2A2859"/>
<path d="M175.982 89.7036H170.918V94.7545H175.982V89.7036Z" fill="#2A2859"/>
<path d="M186.112 89.7036H181.047V94.7545H186.112V89.7036Z" fill="#2A2859"/>
<path d="M175.982 79.6016H170.918V84.6524H175.982V79.6016Z" fill="#2A2859"/>
<path d="M186.112 79.6016H181.047V84.6524H186.112V79.6016Z" fill="#2A2859"/>
<path d="M153.193 125.06H148.129V135.161H153.193V125.06Z" fill="#2A2859"/>
<path d="M153.193 109.907H148.129V120.008H153.193V109.907Z" fill="#2A2859"/>
<path d="M153.193 94.7544H148.129V104.856H153.193V94.7544Z" fill="#2A2859"/>
<path d="M153.193 79.6016H148.129V89.7033H153.193V79.6016Z" fill="#2A2859"/>
<path d="M465.918 80.8644V75.8136H460.854V70.7627H455.789V75.8136H450.725V80.8644H445.661V144H470.983V80.8644H465.918Z" fill="#F9C66B"/>
<path d="M450.726 70.7627H449.763H445.661V75.8135H444.94H440.597V80.8644H444.94H445.661H450.726V75.8135H455.79V70.7627H450.726Z" fill="#2A2859"/>
<path d="M398.815 106.119V131.373V144H411.476V131.373V106.119H398.815Z" fill="#F8F0DD"/>
<path d="M424.137 93.4917L411.476 106.119V144H436.798V106.119L424.137 93.4917Z" fill="#FF8274"/>
<path d="M411.476 106.119H398.815L411.476 93.4917H424.137L411.476 106.119Z" fill="#2A2859"/>
<path d="M427.935 138.949H422.871V144H427.935V138.949Z" fill="#2A2859"/>
<path d="M421.605 109.907H416.541V114.958H421.605V109.907Z" fill="#2A2859"/>
<path d="M431.734 109.907H426.669V114.958H431.734V109.907Z" fill="#2A2859"/>
<path d="M421.605 120.009H416.541V125.06H421.605V120.009Z" fill="#2A2859"/>
<path d="M431.734 120.009H426.669V125.06H431.734V120.009Z" fill="#2A2859"/>
<path d="M460.854 138.949H455.79V144H460.854V138.949Z" fill="#2A2859"/>
<path d="M465.918 128.848H460.854V133.899H465.918V128.848Z" fill="#2A2859"/>
<path d="M455.789 128.848H450.725V133.899H455.789V128.848Z" fill="#2A2859"/>
<path d="M465.918 123.797H460.854V128.848H465.918V123.797Z" fill="#2A2859"/>
<path d="M455.789 123.797H450.725V128.848H455.789V123.797Z" fill="#2A2859"/>
<path d="M465.918 113.695H460.854V118.746H465.918V113.695Z" fill="#2A2859"/>
<path d="M455.789 113.695H450.725V118.746H455.789V113.695Z" fill="#2A2859"/>
<path d="M465.918 108.644H460.854V113.695H465.918V108.644Z" fill="#2A2859"/>
<path d="M455.789 108.644H450.725V113.695H455.789V108.644Z" fill="#2A2859"/>
<path d="M465.918 98.5425H460.854V103.593H465.918V98.5425Z" fill="#2A2859"/>
<path d="M455.789 98.5425H450.725V103.593H455.789V98.5425Z" fill="#2A2859"/>
<path d="M445.661 80.8643H436.798V144H445.661V80.8643Z" fill="#2A2859"/>
<path d="M458.321 93.4914C461.817 93.4914 464.652 90.6647 464.652 87.1778C464.652 83.6909 461.817 80.8643 458.321 80.8643C454.825 80.8643 451.991 83.6909 451.991 87.1778C451.991 90.6647 454.825 93.4914 458.321 93.4914Z" fill="#2A2859"/>
<path d="M507.395 118.745V80.864L494.734 68.2368L482.073 80.864V144H498.33H507.395H558.039V118.745H507.395Z" fill="#FF8274"/>
<path d="M558.039 102.33V118.745H532.717H525.627H507.395V102.33H558.039Z" fill="#2A2859"/>
<path d="M497.266 133.898H492.202V144H497.266V133.898Z" fill="#2A2859"/>
<path d="M527.653 128.847H522.589V133.898H527.653V128.847Z" fill="#2A2859"/>
<path d="M517.525 128.847H512.46V133.898H517.525V128.847Z" fill="#2A2859"/>
<path d="M527.653 123.796H522.589V128.847H527.653V123.796Z" fill="#2A2859"/>
<path d="M517.525 123.796H512.46V128.847H517.525V123.796Z" fill="#2A2859"/>
<path d="M547.91 128.847H542.846V133.898H547.91V128.847Z" fill="#2A2859"/>
<path d="M537.781 128.847H532.717V133.898H537.781V128.847Z" fill="#2A2859"/>
<path d="M547.91 123.796H542.846V128.847H547.91V123.796Z" fill="#2A2859"/>
<path d="M537.781 123.796H532.717V128.847H537.781V123.796Z" fill="#2A2859"/>
<path d="M494.734 94.7536C498.23 94.7536 501.064 91.9269 501.064 88.44C501.064 84.9531 498.23 82.1265 494.734 82.1265C491.238 82.1265 488.403 84.9531 488.403 88.44C488.403 91.9269 491.238 94.7536 494.734 94.7536Z" fill="#2A2859"/>
<path d="M590.831 60.6606L585.767 65.7115H580.702V70.7624H575.638V75.8133H570.573V80.8641H575.638H590.831V75.8133H606.024V60.6606H590.831Z" fill="#2A2859"/>
<path d="M585.767 80.8643H570.573V144H585.767V80.8643Z" fill="#2A2859"/>
<path d="M621.217 75.8132V70.7624H616.153V65.7115H611.088L606.024 60.6606L600.959 65.7115H595.895V70.7624H590.831V75.8132H585.766V80.8641V144H626.281V80.8641V75.8132H621.217Z" fill="#F9C66B"/>
<path d="M608.557 138.949H603.492V144H608.557V138.949Z" fill="#2A2859"/>
<path d="M598.428 85.915H593.363V90.9659H598.428V85.915Z" fill="#2A2859"/>
<path d="M608.557 85.915H603.492V90.9659H608.557V85.915Z" fill="#2A2859"/>
<path d="M618.685 85.915H613.621V90.9659H618.685V85.915Z" fill="#2A2859"/>
<path d="M598.428 96.0166H593.363V101.067H598.428V96.0166Z" fill="#2A2859"/>
<path d="M608.557 96.0166H603.492V101.067H608.557V96.0166Z" fill="#2A2859"/>
<path d="M618.685 96.0166H613.621V101.067H618.685V96.0166Z" fill="#2A2859"/>
<path d="M598.428 106.119H593.363V111.17H598.428V106.119Z" fill="#2A2859"/>
<path d="M608.557 106.119H603.492V111.17H608.557V106.119Z" fill="#2A2859"/>
<path d="M618.685 106.119H613.621V111.17H618.685V106.119Z" fill="#2A2859"/>
<path d="M945.498 103.305H922.708L935.369 90.6782H958.159L945.498 103.305Z" fill="#2A2859"/>
<path d="M945.498 103.305H922.708V146.237H945.498V103.305Z" fill="#F8F0DD"/>
<path d="M958.158 90.6782L945.497 103.305V146.238H958.158H970.819V103.305L958.158 90.6782Z" fill="#FF8274"/>
<path d="M960.691 141.187H955.627V146.237H960.691V141.187Z" fill="#2A2859"/>
<path d="M955.627 132.348H950.562V137.398H955.627V132.348Z" fill="#2A2859"/>
<path d="M965.755 132.348H960.691V137.398H965.755V132.348Z" fill="#2A2859"/>
<path d="M955.627 122.246H950.562V127.297H955.627V122.246Z" fill="#2A2859"/>
<path d="M965.755 122.246H960.691V127.297H965.755V122.246Z" fill="#2A2859"/>
<path d="M955.627 112.144H950.562V117.195H955.627V112.144Z" fill="#2A2859"/>
<path d="M965.755 112.144H960.691V117.195H965.755V112.144Z" fill="#2A2859"/>
<path d="M936.634 127.297H931.57V137.399H936.634V127.297Z" fill="#2A2859"/>
<path d="M936.634 112.144H931.57V122.246H936.634V112.144Z" fill="#2A2859"/>
<path d="M892.322 73H867V146.237H892.322V73Z" fill="#F8F0DD"/>
<path d="M922.708 73H892.322V146.237H922.708V73Z" fill="#F9C66B"/>
<path d="M910.047 141.187H904.983V146.237H910.047V141.187Z" fill="#2A2859"/>
<path d="M904.982 122.246H899.918V127.297H904.982V122.246Z" fill="#2A2859"/>
<path d="M915.112 122.246H910.047V127.297H915.112V122.246Z" fill="#2A2859"/>
<path d="M904.982 112.144H899.918V117.195H904.982V112.144Z" fill="#2A2859"/>
<path d="M915.112 112.144H910.047V117.195H915.112V112.144Z" fill="#2A2859"/>
<path d="M904.982 102.042H899.918V107.093H904.982V102.042Z" fill="#2A2859"/>
<path d="M915.112 102.042H910.047V107.093H915.112V102.042Z" fill="#2A2859"/>
<path d="M904.982 91.9409H899.918V96.9918H904.982V91.9409Z" fill="#2A2859"/>
<path d="M915.112 91.9409H910.047V96.9918H915.112V91.9409Z" fill="#2A2859"/>
<path d="M904.982 81.8389H899.918V86.8897H904.982V81.8389Z" fill="#2A2859"/>
<path d="M915.112 81.8389H910.047V86.8897H915.112V81.8389Z" fill="#2A2859"/>
<path d="M882.193 127.297H877.129V137.399H882.193V127.297Z" fill="#2A2859"/>
<path d="M882.193 112.144H877.129V122.246H882.193V112.144Z" fill="#2A2859"/>
<path d="M882.193 96.9917H877.129V107.093H882.193V96.9917Z" fill="#2A2859"/>
<path d="M882.193 81.8389H877.129V91.9406H882.193V81.8389Z" fill="#2A2859"/>
<path d="M42.9829 106L30.322 118.627V143.881H55.6439V118.627L42.9829 106Z" fill="#FF8274"/>
<path d="M17.661 118.627V131.254H5V143.881H17.661H22.3455H30.3219V136.078V131.254V118.627H17.661Z" fill="#F8F0DD"/>
<path d="M68.3045 131.254H55.6436V143.882H68.3045V131.254Z" fill="#F8F0DD"/>
<path d="M80.9654 118.627L68.3044 131.254V143.881H80.9654H93.6264V131.254L80.9654 118.627Z" fill="#F9C66B"/>
<path d="M106.288 123.678H93.627V143.882H106.288V123.678Z" fill="#F8F0DD"/>
<path d="M118.948 111.051L106.287 123.678V143.881H118.948H131.609V123.678L118.948 111.051Z" fill="#D0BFAE"/>
<path d="M30.3218 118.627H17.6609L30.3218 106H42.9828L30.3218 118.627Z" fill="#2A2859"/>
<path d="M5 131.254H17.661V118.627L5 131.254Z" fill="#2A2859"/>
<path d="M46.7809 138.831H41.7166V143.881H46.7809V138.831Z" fill="#2A2859"/>
<path d="M68.3045 131.254H55.6436L68.3045 118.627H80.9655L68.3045 131.254Z" fill="#2A2859"/>
<path d="M83.4977 138.831H78.4333V143.881H83.4977V138.831Z" fill="#2A2859"/>
<path d="M106.288 123.678H93.627L106.288 111.051H118.949L106.288 123.678Z" fill="#2A2859"/>
<path d="M121.48 138.831H116.416V143.881H121.48V138.831Z" fill="#2A2859"/>
<path d="M1019.98 106L1007.32 118.627V143.881H1032.64V118.627L1019.98 106Z" fill="#FF8274"/>
<path d="M994.661 118.627V131.254H982V143.881H994.661H999.346H1007.32V136.078V131.254V118.627H994.661Z" fill="#F8F0DD"/>
<path d="M1045.3 131.254H1032.64V143.882H1045.3V131.254Z" fill="#F8F0DD"/>
<path d="M1057.97 118.627L1045.3 131.254V143.881H1057.97H1070.63V131.254L1057.97 118.627Z" fill="#F9C66B"/>
<path d="M1083.29 123.678H1070.63V143.882H1083.29V123.678Z" fill="#F8F0DD"/>
<path d="M1095.95 111.051L1083.29 123.678V143.881H1095.95H1108.61V123.678L1095.95 111.051Z" fill="#D0BFAE"/>
<path d="M1007.32 118.627H994.661L1007.32 106H1019.98L1007.32 118.627Z" fill="#2A2859"/>
<path d="M982 131.254H994.661V118.627L982 131.254Z" fill="#2A2859"/>
<path d="M1023.78 138.831H1018.72V143.881H1023.78V138.831Z" fill="#2A2859"/>
<path d="M1045.3 131.254H1032.64L1045.3 118.627H1057.97L1045.3 131.254Z" fill="#2A2859"/>
<path d="M1060.5 138.831H1055.43V143.881H1060.5V138.831Z" fill="#2A2859"/>
<path d="M1083.29 123.678H1070.63L1083.29 111.051H1095.95L1083.29 123.678Z" fill="#2A2859"/>
<path d="M1098.48 138.831H1093.42V143.881H1098.48V138.831Z" fill="#2A2859"/>
</svg>
